<?xml version="1.0" encoding="UTF-8" standalone="no"?>
<!DOCTYPE svg PUBLIC "-//W3C//DTD SVG 1.1//EN" "http://www.w3.org/Graphics/SVG/1.1/DTD/svg11.dtd">
<svg width="100%" height="100%" viewBox="0 0 54 62" version="1.1" xmlns="http://www.w3.org/2000/svg" xmlns:xlink="http://www.w3.org/1999/xlink" xml:space="preserve" xmlns:serif="http://www.serif.com/" style="fill-rule:evenodd;clip-rule:evenodd;stroke-linejoin:round;stroke-miterlimit:2;">
    <g transform="matrix(1,0,0,1,-66,-62)">
        <g transform="matrix(1,0,0,1,34,20)">
            <path d="M43,42L86,42L86,74L66.495,93.505L56,93.505L45.834,103.671L45.834,95L32,95L32,53L43,42Z" style="fill:rgb(145,70,255);"/>
            <path d="M45,46L45,81L56,81L56,89L63.886,81.114L73,81.114L81.432,72.683L81.432,46L45,46Z" style="fill:white;"/>
            <g>
                <g transform="matrix(1,0,0,1,11.7841,0)">
                    <rect x="59" y="54" width="4.216" height="13.5" style="fill:rgb(145,70,255);"/>
                </g>
                <g transform="matrix(1,0,0,1,-1.21585,0)">
                    <rect x="59" y="54" width="4.216" height="13.5" style="fill:rgb(145,70,255);"/>
                </g>
            </g>
        </g>
    </g>
</svg>
